<svg version="1.1" xmlns="http://www.w3.org/2000/svg" style="display: block;" viewBox="0 0 2048 2048" width="1024" height="1024" preserveAspectRatio="none">
<path transform="translate(0,0)" fill="rgb(254,254,254)" d="M 813.425 439.433 C 812.485 433.956 817.611 409.454 819.057 402.187 C 843.324 280.219 940.91 178.81 1023.78 91.9439 C 1113.78 179.353 1241.5 323.937 1234.92 457.366 C 1236.22 458.999 1279.07 482.01 1283.41 483.728 L 1284.49 482.62 C 1363.43 402.067 1494.91 375.249 1603.43 368.266 C 1629.7 366.577 1656.57 364.2 1682.87 363.922 L 1684.14 363.997 C 1685.6 370.381 1683.29 411.526 1682.56 420.311 C 1675.19 508.256 1659.06 609.126 1613.62 686.07 C 1592.34 722.105 1553.92 766.36 1516.75 786.229 C 1515.88 793.382 1520.33 803.3 1522.93 810.176 C 1533.61 810.827 1546.72 805.946 1557.59 805.324 C 1576.74 805.093 1599.3 803.558 1618.27 805.39 C 1716.76 814.904 1805.54 876.48 1877.83 940.25 C 1891.55 952.354 1920.03 975.483 1930.02 989.526 L 1930.33 990.675 C 1917.65 1005.28 1896.91 1024.67 1882.12 1038.11 C 1800.96 1111.87 1702.33 1191.31 1588.92 1200.95 C 1555.39 1203.43 1494.22 1200.1 1464.2 1186.15 C 1460.46 1189.54 1445.66 1212.48 1444.2 1216.67 C 1436.97 1226.32 1423.57 1245.03 1415.46 1253.06 C 1411.58 1257.3 1407.87 1261.32 1404.24 1265.78 C 1389.81 1283.56 1372.55 1298.54 1355.52 1313.73 C 1352.12 1316.75 1348.59 1319.65 1345.47 1322.96 L 1344.66 1323.48 C 1335.82 1329.21 1327.57 1336.39 1318.99 1342.56 C 1235.49 1402.65 1127.56 1439.91 1024.16 1438.09 L 1022.67 1438.19 C 930.08 1437.62 839.423 1411.63 760.59 1363.06 C 739.859 1350.36 723.063 1336.95 703.303 1323.12 C 699.605 1318.87 677.846 1300.76 672.047 1295.33 C 653.998 1278.41 641.204 1263.72 625.259 1244.84 L 605.844 1218.95 C 603.556 1213.94 588.444 1190.28 584.106 1187.11 C 479.06 1219.38 382.798 1196.89 292.473 1137.84 C 246.542 1107.81 203.776 1072.53 164.043 1034.74 C 149.865 1021.25 132.979 1006.6 121.032 991.248 C 120.419 990.634 120.349 989.612 120.048 988.524 C 128.604 972.736 224.387 895.242 245.171 880.802 C 306.285 838.343 380.059 805.356 455.704 804.016 C 476.193 803.653 504.901 808.05 525.421 811.928 C 527.481 807.604 530.488 792.315 531.449 787.084 C 455.731 735.413 418.775 672.665 393.915 585.679 C 371.471 507.144 366.026 444.131 364.325 363.848 L 365.314 363.946 C 374.808 364.814 384.314 364.292 393.95 364.752 C 502.503 369.931 619.494 382.529 712.953 442.508 C 727.071 451.569 754.454 469.638 762.774 483.194 C 763.841 483.528 765.298 484.009 766.347 483.518 C 781.312 476.519 798.022 466.816 812.442 459.581 C 812.348 452.641 811.93 446.21 813.425 439.433 z"/>
<path transform="translate(0,0)" fill="rgb(83,164,78)" d="M 1522.93 810.176 C 1533.61 810.827 1546.72 805.946 1557.59 805.324 C 1576.74 805.093 1599.3 803.558 1618.27 805.39 C 1716.76 814.904 1805.54 876.48 1877.83 940.25 C 1891.55 952.354 1920.03 975.483 1930.02 989.526 L 1930.33 990.675 C 1917.65 1005.28 1896.91 1024.67 1882.12 1038.11 C 1800.96 1111.87 1702.33 1191.31 1588.92 1200.95 C 1555.39 1203.43 1494.22 1200.1 1464.2 1186.15 C 1467.3 1180.32 1469.74 1175.8 1473.34 1170.25 C 1505.35 1118.28 1524.3 1046.08 1532.43 986.303 C 1538.59 945.128 1536.49 872.359 1527.28 831.76 C 1526.11 824.112 1524.67 817.733 1522.93 810.176 z"/>
<path transform="translate(0,0)" fill="rgb(145,196,72)" d="M 1527.28 831.76 C 1535.71 828.592 1548.44 827.849 1557.45 827.866 C 1674.1 828.076 1775.48 911.969 1854.22 989.499 C 1844.27 990.502 1825.23 990.089 1814.6 990.082 L 1745.46 990.051 C 1724.78 990.067 1539.68 991.607 1533.28 989.134 L 1532.43 986.303 C 1538.59 945.128 1536.49 872.359 1527.28 831.76 z"/>
<path transform="translate(0,0)" fill="rgb(14,120,69)" d="M 1930.02 989.526 L 1930.33 990.675 C 1917.65 1005.28 1896.91 1024.67 1882.12 1038.11 C 1800.96 1111.87 1702.33 1191.31 1588.92 1200.95 C 1555.39 1203.43 1494.22 1200.1 1464.2 1186.15 C 1467.3 1180.32 1469.74 1175.8 1473.34 1170.25 C 1493.91 1175.24 1513.39 1178.21 1534.64 1178.38 C 1661.1 1179.38 1770.62 1073.9 1855.19 990.618 C 1860.53 989.722 1872.3 990.23 1878.22 990.141 C 1895.08 989.889 1913.3 990.791 1930.02 989.526 z"/>
<path transform="translate(0,0)" fill="rgb(83,164,78)" d="M 121.032 991.248 C 120.419 990.634 120.349 989.612 120.048 988.524 C 128.604 972.736 224.387 895.242 245.171 880.802 C 306.285 838.343 380.059 805.356 455.704 804.016 C 476.193 803.653 504.901 808.05 525.421 811.928 C 521.115 817.486 522.478 823.928 520.933 830.19 C 509.771 894.832 510.7 927.411 516.063 990.997 C 525.521 1059.84 542.557 1108.83 574.852 1169.85 C 577.405 1174.07 582.655 1182.59 584.106 1187.11 C 479.06 1219.38 382.798 1196.89 292.473 1137.84 C 246.542 1107.81 203.776 1072.53 164.043 1034.74 C 149.865 1021.25 132.979 1006.6 121.032 991.248 z"/>
<path transform="translate(0,0)" fill="rgb(145,196,72)" d="M 194.913 992.365 C 200.391 989.289 485.721 990.738 516.063 990.997 C 525.521 1059.84 542.557 1108.83 574.852 1169.85 C 561.196 1175.73 528.929 1178.14 514.013 1178.31 C 389.711 1179.68 278.249 1074.95 194.913 992.365 z"/>
<path transform="translate(0,0)" fill="rgb(14,120,69)" d="M 121.032 991.248 C 120.419 990.634 120.349 989.612 120.048 988.524 C 128.604 972.736 224.387 895.242 245.171 880.802 C 306.285 838.343 380.059 805.356 455.704 804.016 C 476.193 803.653 504.901 808.05 525.421 811.928 C 521.115 817.486 522.478 823.928 520.933 830.19 C 418.198 819.184 339.834 865.191 263.019 927.079 C 238.541 947.055 215.073 968.238 192.702 990.548 C 182.177 990.474 127.214 989.083 121.032 991.248 z"/>
<path transform="translate(0,0)" fill="rgb(83,164,78)" d="M 1682.87 363.922 L 1684.14 363.997 C 1685.6 370.381 1683.29 411.526 1682.56 420.311 C 1675.19 508.256 1659.06 609.126 1613.62 686.07 C 1592.34 722.105 1553.92 766.36 1516.75 786.229 C 1514.81 781.182 1512.18 770.849 1510.59 765.288 C 1492.3 711.159 1465.5 660.29 1431.2 614.592 C 1393.18 568.176 1358.18 531.636 1307.1 498.379 C 1298.82 493.458 1292.47 488.289 1283.41 483.728 L 1284.49 482.62 C 1363.43 402.067 1494.91 375.249 1603.43 368.266 C 1629.7 366.577 1656.57 364.2 1682.87 363.922 z"/>
<path transform="translate(0,0)" fill="rgb(145,196,72)" d="M 1307.1 498.379 C 1309.35 496.588 1311.64 494.856 1313.99 493.185 C 1388.28 440.382 1487.01 426.109 1576.03 421.039 C 1587.18 420.404 1617.41 418.053 1627.47 419.745 C 1584.58 463.086 1541.37 506.103 1497.83 548.793 L 1454.59 591.892 C 1448.25 598.209 1437.75 609.264 1431.2 614.592 C 1393.18 568.176 1358.18 531.636 1307.1 498.379 z"/>
<path transform="translate(0,0)" fill="rgb(14,120,69)" d="M 1682.87 363.922 L 1684.14 363.997 C 1685.6 370.381 1683.29 411.526 1682.56 420.311 C 1675.19 508.256 1659.06 609.126 1613.62 686.07 C 1592.34 722.105 1553.92 766.36 1516.75 786.229 C 1514.81 781.182 1512.18 770.849 1510.59 765.288 C 1516.95 759.512 1524.83 752.596 1530.73 746.471 C 1593.07 681.797 1615.35 586.712 1623.97 499.971 C 1626.5 474.58 1628.62 445.166 1628.25 419.674 C 1633.98 415.127 1681.88 367.028 1682.87 363.922 z"/>
<path transform="translate(0,0)" fill="rgb(83,164,78)" d="M 364.325 363.848 L 365.314 363.946 C 374.808 364.814 384.314 364.292 393.95 364.752 C 502.503 369.931 619.494 382.529 712.953 442.508 C 727.071 451.569 754.454 469.638 762.774 483.194 C 755.777 486.938 749.092 494.96 741.435 498.762 C 730.429 504.92 720.773 513.268 710.613 520.6 C 672.7 547.962 646.859 580.326 616.773 615.133 C 578.006 668.392 560.315 703.91 537.661 765.147 C 535.659 771.404 532.484 780.669 531.449 787.084 C 455.731 735.413 418.775 672.665 393.915 585.679 C 371.471 507.144 366.026 444.131 364.325 363.848 z"/>
<path transform="translate(0,0)" fill="rgb(145,196,72)" d="M 420.082 420.795 C 445.878 443.733 475.631 474.733 500.188 499.352 L 616.773 615.133 C 578.006 668.392 560.315 703.91 537.661 765.147 C 531.772 760.104 526.097 754.816 520.653 749.297 C 455.676 684.147 431.592 581.864 424.067 493.262 C 422.047 469.475 420.025 444.663 420.082 420.795 z"/>
<path transform="translate(0,0)" fill="rgb(14,120,69)" d="M 364.325 363.848 L 365.314 363.946 C 374.808 364.814 384.314 364.292 393.95 364.752 C 502.503 369.931 619.494 382.529 712.953 442.508 C 727.071 451.569 754.454 469.638 762.774 483.194 C 755.777 486.938 749.092 494.96 741.435 498.762 C 740.592 497.959 739.864 497.25 738.922 496.537 C 665.988 441.315 564.028 425.976 475.015 420.866 C 462.936 420.172 429.718 418.415 419.714 419.741 C 417.212 416.042 404.359 403.662 400.33 399.684 C 388.251 387.818 376.249 375.872 364.325 363.848 z"/>
<path transform="translate(0,0)" fill="rgb(83,164,78)" d="M 813.425 439.433 C 812.485 433.956 817.611 409.454 819.057 402.187 C 843.324 280.219 940.91 178.81 1023.78 91.9439 C 1113.78 179.353 1241.5 323.937 1234.92 457.366 C 1230.88 456.478 1212.36 448.892 1207.12 446.843 C 1151.61 424.807 1083.38 413.653 1023.9 413.231 L 1023.32 412.998 C 961.441 414.481 899.66 423.959 841.772 446.586 C 833.312 450.475 823.042 454.485 814.303 458.22 C 814.266 452.056 814.484 445.468 813.425 439.433 z"/>
<path transform="translate(0,0)" fill="rgb(145,196,72)" d="M 1023.44 171.621 C 1024.38 192.472 1023.96 215.497 1023.96 236.512 L 1023.94 341.858 C 1023.94 350.394 1024.42 407.899 1023.32 412.998 C 961.441 414.481 899.66 423.959 841.772 446.586 L 840.747 445.622 C 840.796 444.762 840.845 443.901 840.893 443.04 C 858.266 350.821 922.798 276.253 985.349 210.125 C 997.231 197.563 1010.22 182.628 1023.44 171.621 z"/>
<path transform="translate(0,0)" fill="rgb(14,120,69)" d="M 1023.78 91.9439 C 1113.78 179.353 1241.5 323.937 1234.92 457.366 C 1230.88 456.478 1212.36 448.892 1207.12 446.843 C 1210.31 437.485 1191.76 388.54 1187.55 379.277 C 1156.74 311.599 1106.39 254.672 1055.21 201.676 C 1050.52 196.821 1029.3 173.72 1024.42 171.891 C 1022.91 148.945 1024.11 116.155 1023.78 91.9439 z"/>
<path transform="translate(0,0)" fill="rgb(14,79,97)" d="M 1023.9 413.231 C 1083.38 413.653 1151.61 424.807 1207.12 446.843 C 1212.36 448.892 1230.88 456.478 1234.92 457.366 C 1236.22 458.999 1279.07 482.01 1283.41 483.728 C 1292.47 488.289 1298.82 493.458 1307.1 498.379 C 1358.18 531.636 1393.18 568.176 1431.2 614.592 C 1465.5 660.29 1492.3 711.159 1510.59 765.288 C 1512.18 770.849 1514.81 781.182 1516.75 786.229 C 1515.88 793.382 1520.33 803.3 1522.93 810.176 C 1524.67 817.733 1526.11 824.112 1527.28 831.76 C 1536.49 872.359 1538.59 945.128 1532.43 986.303 C 1524.3 1046.08 1505.35 1118.28 1473.34 1170.25 C 1469.74 1175.8 1467.3 1180.32 1464.2 1186.15 C 1460.46 1189.54 1445.66 1212.48 1444.2 1216.67 C 1436.97 1226.32 1423.57 1245.03 1415.46 1253.06 C 1411.58 1257.3 1407.87 1261.32 1404.24 1265.78 C 1389.81 1283.56 1372.55 1298.54 1355.52 1313.73 C 1352.12 1316.75 1348.59 1319.65 1345.47 1322.96 L 1344.66 1323.48 C 1335.82 1329.21 1327.57 1336.39 1318.99 1342.56 C 1235.49 1402.65 1127.56 1439.91 1024.16 1438.09 L 1024.16 1390.21 C 1280.58 1390.16 1488.49 1182.4 1488.73 925.98 C 1488.97 669.56 1281.45 461.415 1025.03 460.884 L 1023.9 413.231 z"/>
<path transform="translate(0,0)" fill="rgb(18,98,118)" d="M 1023.32 412.998 L 1023.9 413.231 L 1025.03 460.884 C 768.202 460.351 559.649 668.278 559.408 925.11 C 559.168 1181.94 767.331 1390.26 1024.16 1390.21 L 1024.16 1438.09 L 1022.67 1438.19 C 930.08 1437.62 839.423 1411.63 760.59 1363.06 C 739.859 1350.36 723.063 1336.95 703.303 1323.12 C 699.605 1318.87 677.846 1300.76 672.047 1295.33 C 653.998 1278.41 641.204 1263.72 625.259 1244.84 L 605.844 1218.95 C 603.556 1213.94 588.444 1190.28 584.106 1187.11 C 582.655 1182.59 577.405 1174.07 574.852 1169.85 C 542.557 1108.83 525.521 1059.84 516.063 990.997 C 510.7 927.411 509.771 894.832 520.933 830.19 C 522.478 823.928 521.115 817.486 525.421 811.928 C 527.481 807.604 530.488 792.315 531.449 787.084 C 532.484 780.669 535.659 771.404 537.661 765.147 C 560.315 703.91 578.006 668.392 616.773 615.133 C 646.859 580.326 672.7 547.962 710.613 520.6 C 720.773 513.268 730.429 504.92 741.435 498.762 C 749.092 494.96 755.777 486.938 762.774 483.194 C 763.841 483.528 765.298 484.009 766.347 483.518 C 781.312 476.519 798.022 466.816 812.442 459.581 C 812.348 452.641 811.93 446.21 813.425 439.433 C 814.484 445.468 814.266 452.056 814.303 458.22 C 823.042 454.485 833.312 450.475 841.772 446.586 C 899.66 423.959 961.441 414.481 1023.32 412.998 z"/>
<path transform="translate(0,0)" fill="rgb(18,98,118)" d="M 693.972 743.783 C 707.619 732.72 720.14 722.693 734.703 712.844 C 807.198 663.813 939.598 638.235 1002.27 716.251 C 1025.54 745.123 1036.19 782.155 1031.82 818.979 C 1026.81 860.229 1005.62 897.801 972.924 923.442 C 965.563 929.208 959.262 932.96 951.084 937.513 C 978.606 948.494 1004.31 968.194 1034.49 955.025 C 1105.81 923.905 1097.01 792.914 1214.91 767.013 C 1243.79 760.907 1273.82 763.326 1301.35 773.976 C 1424.07 821.026 1445.29 1008.68 1400.4 1115.31 C 1381.62 1159.89 1352.79 1201.73 1306.09 1221.31 C 1233.6 1250.6 1156.93 1227.19 1126.41 1152.96 C 1115.86 1127.87 1111.19 1100.69 1112.77 1073.52 C 1112.97 1070.52 1113.73 1061.45 1114.76 1058.94 C 1115.04 1048.5 1119.82 1030.98 1122.93 1021.07 C 1127.28 1030.76 1131.79 1043.54 1135.59 1053.67 C 1145.28 1069.9 1153 1084.64 1168.41 1096.61 C 1205.76 1126.06 1253.37 1121.4 1292.58 1097.24 C 1360.2 1055.57 1376.3 979.047 1359.18 905.074 C 1346.57 850.568 1298.23 820.47 1247.23 851.884 C 1218.12 869.816 1202.48 910.635 1184.05 938.274 C 1144.82 1000.36 1107.9 1007.78 1038.71 1000.79 C 1067.51 1049.37 1076.15 1107.3 1062.77 1162.17 C 1034.78 1272.24 929.432 1323 822.707 1293.93 C 690.932 1258.03 626.603 1124.41 627.806 996.465 C 627.889 987.636 628.504 959.971 633.245 954.17 C 635.168 954.552 635.184 954.224 635.941 955.836 C 643.029 970.934 646.756 992.938 652.175 1008.67 C 676.386 1078.93 708.822 1148.12 782.335 1177.86 C 791.989 1181.68 801.141 1185.91 811.359 1188.16 C 853.382 1197.41 898.072 1197.44 935.849 1174.57 C 983.412 1145.77 1003.43 1085.32 973.442 1036.59 C 961.779 1017.64 941.638 1005.96 920.229 1001.55 C 894.047 995.89 872.699 1001.44 847.794 1009.34 C 831.999 975.531 807.197 925.245 800.853 887.722 C 847.367 894.986 900.824 898.728 941.072 870.292 C 965.543 853.003 977.563 822.621 956.517 797.861 C 905.268 737.568 807.922 793.727 761.923 829.853 C 758.892 832.241 755.896 834.673 752.935 837.147 C 734.761 811.452 710.406 770.929 693.972 743.783 z"/>
<path transform="translate(0,0)" fill="rgb(14,79,97)" d="M 1122.93 1021.07 C 1127.28 1030.76 1131.79 1043.54 1135.59 1053.67 L 1133.61 1053.24 C 1131.72 1048.87 1130.06 1042.98 1126.63 1040.35 C 1123.54 1039.57 1123.65 1039.83 1120.59 1040.97 C 1116.29 1045.99 1118.15 1056.26 1115.3 1059.12 L 1114.76 1058.94 C 1115.04 1048.5 1119.82 1030.98 1122.93 1021.07 z"/>
<path transform="translate(0,0)" fill="rgb(18,98,118)" d="M 969.681 569.442 C 974.704 573.333 994.008 601.816 1000.75 608.951 C 1088.93 702.348 1186.85 668.899 1270.15 594.387 C 1281.49 606.584 1324.39 655.436 1330.57 670.051 L 1329.45 672.227 C 1326.52 674.846 1323.56 677.433 1320.57 679.988 C 1233.35 754.291 1093.37 778.806 1010.81 682.601 C 985.86 653.528 966.571 608.32 969.681 569.442 z"/>
<path transform="translate(0,0)" fill="rgb(18,98,118)" d="M 1121.12 511.641 C 1125.82 513.797 1183.67 573.023 1191.81 581.098 C 1171.06 603.33 1144.4 628.492 1122.65 650.745 C 1118.74 650.942 1062.6 591.645 1052.66 583.147 C 1075.65 559.655 1098.28 535.364 1121.12 511.641 z"/>
<path transform="translate(0,0)" fill="rgb(254,254,254)" d="M 632.178 1259.69 L 629.926 1258.74 C 626.637 1254.05 624.936 1250.61 625.259 1244.84 C 641.204 1263.72 653.998 1278.41 672.047 1295.33 C 677.846 1300.76 699.605 1318.87 703.303 1323.12 C 723.063 1336.95 739.859 1350.36 760.59 1363.06 C 839.423 1411.63 930.08 1437.62 1022.67 1438.19 L 1024.16 1438.09 C 1127.56 1439.91 1235.49 1402.65 1318.99 1342.56 C 1327.57 1336.39 1335.82 1329.21 1344.66 1323.48 L 1345.47 1322.96 C 1348.59 1319.65 1352.12 1316.75 1355.52 1313.73 C 1372.55 1298.54 1389.81 1283.56 1404.24 1265.78 C 1407.98 1267.82 1411.09 1269.6 1415.06 1271.23 C 1410.22 1281.79 1400.72 1307.2 1395.39 1315.67 C 1392.68 1319.66 1392.12 1321.01 1390.28 1325.5 C 1385.17 1334.85 1372.44 1358.91 1365.06 1365.46 C 1361.79 1367.22 1359.78 1371.56 1358.24 1374.9 C 1356.03 1379.95 1331.51 1408.31 1326.95 1411.6 C 1322.98 1412.65 1319.2 1415.56 1319.27 1420.02 C 1314.28 1425.56 1290.56 1447.82 1284.68 1450.61 C 1280.86 1452.08 1276.19 1454.21 1274.21 1458.03 C 1267.96 1464.25 1242.79 1480.99 1234.75 1485.25 C 1229.36 1487.6 1227.37 1488.29 1222.62 1492.04 C 1216.78 1495.85 1187.25 1510.74 1181.01 1512.12 C 1176.75 1510.23 1172.17 1513.6 1168.8 1516.34 C 1152.77 1521.6 1136.37 1527.1 1119.86 1530.63 C 1117.52 1531.14 1110.69 1532.5 1108.72 1533.31 C 1097.68 1536.77 1071.8 1540.66 1060.66 1540.13 C 1057.77 1540.02 1052.21 1539.36 1050.08 1541.25 C 1033.56 1542.05 1015.3 1541.46 998.75 1540.54 C 994.756 1539.4 991.273 1537.62 987.747 1540.05 C 979.142 1540.45 946.585 1536.34 939.108 1532.28 C 936.498 1530.33 930.737 1529.86 927.461 1530.47 C 919.971 1529.86 887.873 1519.12 880.245 1515.81 C 877.055 1511.96 872.754 1510 867.749 1510.76 C 860.269 1510.16 834.444 1496.5 825.865 1492.43 C 826.563 1489.97 826.487 1490.83 826.271 1488.39 C 822.117 1483.43 818.801 1480.41 813.249 1485.13 C 804.955 1480.3 779.881 1464.38 773.846 1458.07 L 774.699 1455.53 C 771.317 1451.45 768.434 1449.68 763.065 1449.77 C 757.207 1446.62 734.809 1425.64 729.881 1420.33 C 728.545 1416.42 725.321 1411.73 720.911 1411.65 C 715.833 1406.84 693.224 1381.12 690.891 1375.26 C 690.062 1371.35 687.792 1368.03 684.953 1365.31 L 683.094 1365.79 C 677.894 1360.01 661.457 1334.02 659.648 1326.7 C 658.464 1321.44 656.348 1317.72 652.529 1313.97 C 649.158 1309.95 635.528 1277.71 634.809 1272.11 C 635.113 1267.66 634.472 1263.52 632.178 1259.69 z"/>
<path transform="translate(0,0)" fill="rgb(201,161,49)" d="M 1024.16 1438.09 C 1127.56 1439.91 1235.49 1402.65 1318.99 1342.56 C 1327.57 1336.39 1335.82 1329.21 1344.66 1323.48 L 1345.47 1322.96 C 1339.98 1334.87 1326.87 1352.5 1318.3 1362.95 C 1275.48 1415.05 1219.51 1454.76 1156.18 1477.95 C 1113.82 1493.62 1069 1501.59 1023.83 1501.49 C 1024 1493.28 1025.33 1441.75 1022.67 1438.19 L 1024.16 1438.09 z"/>
<path transform="translate(0,0)" fill="rgb(247,206,50)" d="M 703.303 1323.12 C 723.063 1336.95 739.859 1350.36 760.59 1363.06 C 839.423 1411.63 930.08 1437.62 1022.67 1438.19 C 1025.33 1441.75 1024 1493.28 1023.83 1501.49 C 958.937 1500.25 898.5 1486.44 841.288 1454.81 C 794.165 1428.62 752.918 1393.04 720.101 1350.27 C 714.975 1343.54 705.609 1331.13 703.303 1323.12 z"/>
<path transform="translate(0,0)" fill="rgb(247,161,42)" d="M 1371.43 206.388 C 1374.22 209.078 1379.29 220.858 1381.13 224.808 C 1397.86 260.773 1410.56 297.038 1420.76 335.39 C 1423.27 344.841 1428.37 360.109 1429.79 369.409 C 1373.07 390.974 1323.32 408.167 1277.96 450.833 C 1275.68 452.983 1268.69 459.057 1265.92 459.257 C 1260.21 421.936 1256.58 385.143 1243.47 348.762 C 1236.54 329.543 1222.87 302.017 1214.44 282.511 C 1214.59 281.891 1214.75 281.27 1214.91 280.649 C 1230.7 262.093 1345.25 212.876 1371.43 206.388 z"/>
<path transform="translate(0,0)" fill="rgb(241,124,39)" d="M 1371.43 206.388 C 1374.22 209.078 1379.29 220.858 1381.13 224.808 C 1397.86 260.773 1410.56 297.038 1420.76 335.39 C 1423.27 344.841 1428.37 360.109 1429.79 369.409 C 1373.07 390.974 1323.32 408.167 1277.96 450.833 C 1275.68 452.983 1268.69 459.057 1265.92 459.257 C 1289.84 398.899 1316.66 337.328 1341.88 277.431 C 1347.74 263.444 1353.69 249.5 1359.74 235.599 C 1363.38 227.195 1369.35 214.924 1371.43 206.388 z"/>
<path transform="translate(0,0)" fill="rgb(241,124,39)" d="M 675.623 208.906 C 692.702 204.098 800.374 259.485 822.218 271.721 C 826.631 274.202 830.941 276.864 835.136 279.699 C 827.944 297.1 817.765 314.409 810.976 331.619 C 797.509 365.752 782.548 420.85 783.024 457.554 L 781.92 459.47 C 781.29 459.235 780.66 459 780.03 458.765 C 743.604 427.663 710.606 404.74 665.781 386.88 C 650.162 380.657 633.736 376.307 618.288 370.079 C 619.062 364.642 624.752 346.155 626.45 339.62 C 637.937 295.436 653.586 249.016 675.623 208.906 z"/>
<path transform="translate(0,0)" fill="rgb(247,161,42)" d="M 675.623 208.906 C 686.667 218.985 731.772 345.425 743.709 367.365 C 748.504 376.179 780.638 453.244 780.03 458.765 C 743.604 427.663 710.606 404.74 665.781 386.88 C 650.162 380.657 633.736 376.307 618.288 370.079 C 619.062 364.642 624.752 346.155 626.45 339.62 C 637.937 295.436 653.586 249.016 675.623 208.906 z"/>
<path transform="translate(0,0)" fill="rgb(241,124,39)" d="M 220.467 670.364 C 263.877 649.758 303.251 634.432 350.138 623.692 C 356.284 622.284 368.018 617.495 373.817 619.191 C 378.787 628.036 387.127 653.518 393.379 666.213 C 410.312 700.6 427.082 727.148 452.658 755.969 C 457.631 761.572 463.435 766.924 467.971 772.057 C 468.906 774.109 468.894 773.949 468.448 776.158 C 466.949 776.913 432.359 778.031 427.253 778.389 C 379.731 781.714 338.518 798.741 295.744 818.344 C 276.321 800.008 223.365 696.225 220.467 670.364 z"/>
<path transform="translate(0,0)" fill="rgb(247,161,42)" d="M 220.467 670.364 C 258.115 689.47 308.933 709.137 348.672 726.084 C 372.862 736.484 397.145 746.666 421.519 756.628 C 431.984 760.921 457.961 773.299 467.971 772.057 C 468.906 774.109 468.894 773.949 468.448 776.158 C 466.949 776.913 432.359 778.031 427.253 778.389 C 379.731 781.714 338.518 798.741 295.744 818.344 C 276.321 800.008 223.365 696.225 220.467 670.364 z"/>
<path transform="translate(0,0)" fill="rgb(247,161,42)" d="M 1676.01 618.745 C 1717.1 627.022 1757.21 639.556 1795.7 656.144 C 1805.06 660.098 1818.49 665.612 1826.9 670.836 L 1828.39 671.688 C 1828.87 675.88 1823.54 685.115 1822.01 689.188 C 1814.28 709.788 1768.71 812.733 1750.57 816.411 C 1744.57 815.271 1715.7 802.15 1705.99 798.713 C 1658.93 782.065 1623.68 777.501 1574.67 776.417 L 1582.37 770.918 C 1609.94 742.493 1631.84 712.456 1649.78 677.132 C 1658.97 659.041 1665.95 635.867 1676.01 618.745 z"/>
<path transform="translate(0,0)" fill="rgb(241,124,39)" d="M 1826.9 670.836 L 1828.39 671.688 C 1828.87 675.88 1823.54 685.115 1822.01 689.188 C 1814.28 709.788 1768.71 812.733 1750.57 816.411 C 1744.57 815.271 1715.7 802.15 1705.99 798.713 C 1658.93 782.065 1623.68 777.501 1574.67 776.417 L 1582.37 770.918 C 1582.97 772.103 1582.52 771.391 1584.03 772.821 C 1592.26 772.091 1823.99 674.169 1826.9 670.836 z"/>
<path transform="translate(0,0)" fill="rgb(201,161,49)" d="M 1415.06 1271.23 C 1448.96 1284.87 1486.27 1306.21 1519.92 1321.76 C 1609.13 1362.99 1701.34 1404.06 1789.36 1447.51 L 1790.26 1451.75 C 1759.72 1441.74 1730.87 1430.62 1700.85 1420.26 L 1536.42 1364.31 C 1489.56 1348.11 1441.09 1334.89 1395.39 1315.67 C 1400.72 1307.2 1410.22 1281.79 1415.06 1271.23 z"/>
<path transform="translate(0,0)" fill="rgb(201,161,49)" d="M 634.809 1272.11 C 635.528 1277.71 649.158 1309.95 652.529 1313.97 L 650.825 1316.45 C 645.35 1316.88 621.321 1326.35 614.429 1328.64 C 599.416 1333.64 583.519 1339.09 568.542 1344.36 C 472.028 1378 375.286 1410.98 278.325 1443.3 C 270.559 1445.9 242.821 1457.47 237.361 1457.19 C 262.905 1446.69 293.984 1430.84 319.857 1418.82 L 537.351 1316.39 C 565.045 1303.56 607.655 1281.37 634.809 1272.11 z"/>
<path transform="translate(0,0)" fill="rgb(201,161,49)" d="M 1358.24 1374.9 C 1370.51 1386.49 1383.7 1396.77 1396.28 1408.19 L 1510.56 1512.1 C 1560.69 1557.47 1612.37 1606.82 1663.66 1650.62 L 1660.27 1652.01 C 1589.01 1599.46 1517.23 1547.6 1444.96 1496.44 C 1407.57 1469.76 1362.74 1439.22 1326.95 1411.6 C 1331.51 1408.31 1356.03 1379.95 1358.24 1374.9 z"/>
<path transform="translate(0,0)" fill="rgb(201,161,49)" d="M 1274.21 1458.03 C 1280.89 1468.1 1285.65 1478.1 1291.94 1488.23 C 1316.04 1527.02 1338.72 1566.52 1362.47 1605.6 L 1437.34 1730.19 L 1463.46 1774 C 1468.07 1781.63 1475.69 1793.32 1479.65 1800.88 L 1476.3 1801.86 C 1457.72 1778.35 1440.15 1754.11 1421.95 1730.4 L 1329.14 1610.4 C 1307.15 1582.24 1285.43 1553.87 1263.99 1525.29 C 1254.12 1512.08 1243.78 1499.03 1234.75 1485.25 C 1242.79 1480.99 1267.96 1464.25 1274.21 1458.03 z"/>
<path transform="translate(0,0)" fill="rgb(201,161,49)" d="M 998.75 1540.54 C 1015.3 1541.46 1033.56 1542.05 1050.08 1541.25 C 1050.6 1543.13 1050.58 1543.32 1050.31 1545.22 C 1044.58 1585.65 1043.64 1629.06 1041.42 1669.57 L 1029.34 1868.26 C 1028.31 1885.78 1027.18 1903.18 1026.02 1920.69 C 1025.53 1928.12 1026.85 1936.77 1025.7 1943.5 L 1024.93 1943.46 C 1023.56 1938.13 1022.77 1923.72 1022.33 1917.6 C 1020.37 1890.52 1018.68 1863.34 1016.85 1836.22 L 998.75 1540.54 z"/>
<path transform="translate(0,0)" fill="rgb(201,161,49)" d="M 690.891 1375.26 C 693.224 1381.12 715.833 1406.84 720.911 1411.65 C 698.961 1426.77 678.737 1442.34 657.248 1457.45 C 599.595 1497.74 542.273 1538.51 485.289 1579.75 L 413.452 1633 C 402.007 1641.57 383.499 1655.89 371.942 1663.72 L 373.553 1662.37 L 373.001 1662.24 C 396.694 1637.85 430.323 1609.36 455.855 1586.16 L 633.085 1426.16 C 645.628 1414.65 658.346 1403.32 671.236 1392.2 C 677.425 1386.85 684.476 1381.84 689.976 1376.21 L 690.891 1375.26 z"/>
<path transform="translate(0,0)" fill="rgb(201,161,49)" d="M 1119.86 1530.63 C 1136.37 1527.1 1152.77 1521.6 1168.8 1516.34 C 1172.73 1537.09 1177.65 1554.28 1182.68 1574.49 L 1201.49 1651.92 C 1219.77 1724.89 1237.09 1798.74 1255.28 1871.78 C 1258.66 1885.35 1264.55 1904.14 1266.08 1917.6 C 1257.39 1897.03 1249.18 1870.13 1240.71 1848.2 L 1156.54 1627.8 C 1145.91 1599.82 1132.46 1557.32 1119.86 1530.63 z"/>
<path transform="translate(0,0)" fill="rgb(201,161,49)" d="M 773.846 1458.07 C 779.881 1464.38 804.955 1480.3 813.249 1485.13 C 809.331 1494.39 788.611 1517.82 782.27 1526.04 L 714.114 1614.58 L 620.938 1737.08 C 599.297 1765.85 580.101 1792.49 557.51 1820.85 L 555.956 1820.99 L 556.632 1821.82 L 555.859 1822.53 L 555.57 1821.92 C 555.754 1821.54 555.939 1821.15 556.123 1820.77 L 557.188 1821.3 L 556.497 1820.07 C 608.46 1735.38 659.697 1650.23 710.2 1564.66 C 725.033 1539.43 740.102 1514.33 755.404 1489.38 C 759.772 1482.11 769.645 1463.98 773.846 1458.07 z"/>
<path transform="translate(0,0)" fill="rgb(201,161,49)" d="M 880.245 1515.81 C 887.873 1519.12 919.971 1529.86 927.461 1530.47 C 882.905 1651.93 837.031 1772.9 789.846 1893.37 L 787.243 1891.17 C 791.043 1870.61 798.583 1847.28 803.787 1826.87 C 809.007 1806.39 814.028 1785.9 818.902 1765.34 L 856.907 1609.71 C 864.284 1579.39 871.236 1545.36 880.245 1515.81 z"/>
<path transform="translate(0,0)" fill="rgb(247,206,50)" d="M 1365.06 1365.46 C 1372.44 1358.91 1385.17 1334.85 1390.28 1325.5 C 1396.38 1331.49 1402.52 1334.13 1408.93 1339.14 C 1429.01 1354.81 1450.52 1366.96 1471.35 1381.25 L 1628.81 1491.54 C 1626.02 1492.82 1623.96 1492.04 1620.85 1491.48 C 1614.73 1490.11 1580.34 1472.13 1571.52 1467.9 L 1402.66 1385.67 C 1389.63 1379.25 1377.67 1371.43 1365.06 1365.46 z"/>
<path transform="translate(0,0)" fill="rgb(247,206,50)" d="M 659.648 1326.7 C 661.457 1334.02 677.894 1360.01 683.094 1365.79 C 676.597 1371.15 632.187 1390.4 621.006 1395.95 L 396.177 1507.15 C 401.536 1501.29 427.49 1484.86 435.609 1479.29 C 472.636 1453.73 509.865 1428.46 547.291 1403.48 L 613.402 1357.56 C 628.282 1347.15 643.804 1335.62 659.648 1326.7 z"/>
<path transform="translate(0,0)" fill="rgb(247,206,50)" d="M 1319.27 1420.02 C 1325.71 1430.7 1351.31 1461.44 1360.04 1472.21 L 1423.61 1551.71 C 1438.69 1570.63 1453.61 1589.67 1468.37 1608.83 C 1475.77 1618.38 1485.31 1631.51 1493.21 1640.26 L 1488.48 1642.27 C 1476.34 1633.56 1447.78 1603.87 1435.44 1592.51 L 1361 1522.81 C 1334.34 1498.1 1310.27 1476.66 1284.68 1450.61 C 1290.56 1447.82 1314.28 1425.56 1319.27 1420.02 z"/>
<path transform="translate(0,0)" fill="rgb(247,206,50)" d="M 1444.2 1216.67 C 1450.26 1222.92 1473.4 1229.54 1482.94 1232.86 C 1505.87 1241.02 1528.95 1248.79 1552.15 1256.15 C 1564.39 1260.14 1734.51 1316.9 1731.26 1313.75 C 1722.43 1314.58 1671.62 1303.41 1658.49 1301.23 L 1511.03 1276.66 C 1485.79 1272.47 1460.69 1270.05 1435.74 1263.79 C 1425.9 1261.33 1422.52 1261.33 1415.46 1253.06 C 1423.57 1245.03 1436.97 1226.32 1444.2 1216.67 z"/>
<path transform="translate(0,0)" fill="rgb(247,206,50)" d="M 1222.62 1492.04 C 1230.99 1509.41 1238.77 1534.61 1246.18 1553.1 L 1318.74 1738.29 C 1317.07 1740.58 1317.11 1741.13 1314.55 1742 L 1221.28 1583.91 C 1212.43 1568.7 1186.74 1527.38 1181.01 1512.12 C 1187.25 1510.74 1216.78 1495.85 1222.62 1492.04 z"/>
<path transform="translate(0,0)" fill="rgb(247,206,50)" d="M 763.065 1449.77 C 759.864 1455 749.083 1464.37 744.228 1468.98 C 730.715 1481.8 717.133 1494.54 703.482 1507.21 C 689.762 1520.01 539.797 1659.54 540.232 1659.48 C 575.939 1612.13 613.313 1567.1 650.304 1520.88 L 702.031 1456.2 C 711.525 1444.19 719.945 1432.33 729.881 1420.33 C 734.809 1425.64 757.207 1446.62 763.065 1449.77 z"/>
<path transform="translate(0,0)" fill="rgb(247,206,50)" d="M 632.178 1259.69 C 618.882 1261.14 597.34 1266.69 582.964 1269.15 L 372.57 1304.32 C 357.59 1306.96 342.636 1309.68 327.779 1312.95 C 327.222 1312.59 326.666 1312.23 326.109 1311.88 L 326.137 1311.8 C 337.264 1306.43 360.792 1299.57 373.333 1295.6 L 465.982 1267.01 C 472.112 1265.1 478.683 1263.04 484.686 1260.76 C 524.508 1245.63 565.357 1232.17 605.844 1218.95 L 625.259 1244.84 C 624.936 1250.61 626.637 1254.05 629.926 1258.74 L 632.178 1259.69 z"/>
<path transform="translate(0,0)" fill="rgb(247,206,50)" d="M 939.108 1532.28 C 946.585 1536.34 979.142 1540.45 987.747 1540.05 C 984.927 1550.36 981.441 1559.98 978.651 1570.45 C 969.504 1605.71 961.177 1641.19 953.676 1676.84 C 948.14 1702.5 942.434 1728.32 936.118 1753.8 C 934.417 1760.66 930.138 1781.91 928.043 1787.56 C 925.851 1796.75 920.711 1823.13 918.283 1830.29 C 916.733 1825.19 920.899 1783.84 921.538 1776.58 C 924.702 1762.57 925.279 1718.46 926.814 1702.02 C 930.954 1657.7 934.526 1612.02 936.463 1567.57 C 936.982 1555.64 939.121 1544.07 939.108 1532.28 z"/>
<path transform="translate(0,0)" fill="rgb(201,161,49)" d="M 928.043 1787.56 C 925.851 1796.75 920.711 1823.13 918.283 1830.29 C 916.733 1825.19 920.899 1783.84 921.538 1776.58 C 923.807 1785.63 920.634 1794.36 922.195 1799.77 C 925.129 1794.78 923.779 1791.48 928.043 1787.56 z"/>
<path transform="translate(0,0)" fill="rgb(247,206,50)" d="M 1060.66 1540.13 C 1071.8 1540.66 1097.68 1536.77 1108.72 1533.31 C 1111.32 1561.12 1112.43 1588.71 1113.64 1616.61 C 1116.72 1687.5 1127.58 1761.02 1130.34 1831.61 C 1127.83 1822.92 1125.95 1813.93 1123.78 1805.14 C 1101.96 1716.77 1083.5 1628.29 1060.66 1540.13 z"/>
<path transform="translate(0,0)" fill="rgb(247,206,50)" d="M 825.865 1492.43 C 834.444 1496.5 860.269 1510.16 867.749 1510.76 C 866.057 1515.6 854.556 1531.88 850.903 1538.32 L 749.66 1714.93 C 744.969 1722.96 720.457 1765.85 716.894 1769.7 C 717.342 1761.69 761.081 1657.55 767.023 1642.49 L 803.66 1549.14 C 811.156 1529.69 817.412 1511.68 825.865 1492.43 z"/>
<path transform="translate(0,0)" fill="rgb(201,161,49)" fill-opacity="0.988235" d="M 1628.81 1491.54 C 1636.12 1494.5 1650.19 1505.01 1657.19 1510.12 C 1644.03 1504.41 1633.16 1498.61 1620.85 1491.48 C 1623.96 1492.04 1626.02 1492.82 1628.81 1491.54 z"/>
<path transform="translate(0,0)" fill="rgb(201,161,49)" fill-opacity="0.988235" d="M 1318.74 1738.29 C 1320.71 1743.06 1329.14 1762.26 1329.32 1765.67 C 1327.1 1764.88 1316.84 1746.8 1315.43 1743.9 C 1315.12 1743.27 1314.83 1742.64 1314.55 1742 C 1317.11 1741.13 1317.07 1740.58 1318.74 1738.29 z"/>
<path transform="translate(0,0)" fill="rgb(201,161,49)" d="M 1493.21 1640.26 C 1498.71 1647.22 1503.99 1653.19 1508.49 1660.83 C 1507.04 1659.86 1490.99 1644.56 1488.48 1642.27 L 1493.21 1640.26 z"/>
<path transform="translate(0,0)" fill="rgb(164,144,108)" fill-opacity="0.945098" d="M 1479.65 1800.88 C 1484.2 1807.89 1488.31 1814.44 1492.14 1821.9 C 1487.23 1816.78 1480.16 1807.84 1476.3 1801.86 L 1479.65 1800.88 z"/>
<path transform="translate(0,0)" fill="rgb(164,144,108)" fill-opacity="0.921569" d="M 1663.66 1650.62 C 1666.54 1653.22 1678.18 1663.32 1679.4 1665.9 C 1674.51 1663.09 1664.8 1655.94 1660.27 1652.01 L 1663.66 1650.62 z"/>
<path transform="translate(0,0)" fill="rgb(130,121,78)" fill-opacity="0.937255" d="M 787.243 1891.17 L 789.846 1893.37 C 787.488 1900.34 785.106 1907.7 782.518 1914.56 C 783.205 1907.19 785.593 1898.62 787.243 1891.17 z"/>
<path transform="translate(0,0)" fill="rgb(130,121,78)" fill-opacity="0.964706" d="M 1789.36 1447.51 C 1792.67 1449.13 1799.96 1452.39 1802.52 1454.45 L 1802.27 1454.79 C 1797.37 1454.03 1795.01 1453.27 1790.26 1451.75 L 1789.36 1447.51 z"/>
<path transform="translate(0,0)" fill="rgb(5,3,5)" fill-opacity="0.0156863" d="M 1670.79 1424.85 L 1671.53 1425.05 C 1672.49 1427.78 1672.74 1427.43 1675.1 1429.66 L 1675.01 1430.77 L 1671.96 1429.75 C 1669.7 1431.16 1670.63 1430.71 1667.76 1431.02 L 1667.08 1429.56 C 1670.33 1426.62 1668.64 1429.3 1670.79 1424.85 z"/>
<path transform="translate(0,0)" fill="rgb(5,3,5)" fill-opacity="0.0196078" d="M 1485.99 1535.54 C 1487.64 1538.65 1487.91 1540.67 1486.47 1543.72 L 1485.27 1543.35 C 1484.55 1540.11 1485.18 1538.75 1485.99 1535.54 z"/>
<path transform="translate(0,0)" fill="rgb(5,3,5)" fill-opacity="0.0196078" d="M 1247.37 1524.78 L 1248.96 1527.02 C 1248.77 1530.22 1249.38 1528.87 1246.97 1531.14 L 1245.84 1530.37 C 1246.34 1528.1 1246.69 1526.99 1247.37 1524.78 z"/>
</svg>